<svg width="72" height="72" viewBox="0 0 72 72" fill="none" xmlns="http://www.w3.org/2000/svg">
<rect width="72" height="72" rx="10" fill="#E74D4E"/>
<path d="M10.48 36.32C10.48 35.2 10.704 34.2027 11.152 33.328C11.6107 32.4533 12.2613 31.776 13.104 31.296C13.9467 30.8053 14.9387 30.56 16.08 30.56C17.0613 30.56 17.936 30.7467 18.704 31.12C19.4827 31.4827 20.112 32 20.592 32.672C21.0827 33.344 21.408 34.128 21.568 35.024H17.824C17.6533 34.6507 17.408 34.3627 17.088 34.16C16.7787 33.9467 16.4213 33.84 16.016 33.84C15.4187 33.84 14.944 34.064 14.592 34.512C14.2507 34.96 14.08 35.5627 14.08 36.32C14.08 37.0773 14.2507 37.68 14.592 38.128C14.944 38.576 15.4187 38.8 16.016 38.8C16.4213 38.8 16.7787 38.6987 17.088 38.496C17.408 38.2827 17.6533 37.9893 17.824 37.616H21.568C21.408 38.512 21.0827 39.296 20.592 39.968C20.112 40.64 19.4827 41.1627 18.704 41.536C17.936 41.8987 17.0613 42.08 16.08 42.08C14.9387 42.08 13.9467 41.84 13.104 41.36C12.2613 40.8693 11.6107 40.1867 11.152 39.312C10.704 38.4373 10.48 37.44 10.48 36.32ZM39.1669 30.672L36.5749 42H32.1589L30.8469 35.568L29.5349 42H25.1189L22.5269 30.672H26.3509L27.3749 37.808L28.9109 30.672H32.7829L34.3189 37.808L35.3429 30.672H39.1669ZM51.8806 35.264L51.5606 36.784H53.3206V40.016H50.8566L50.4406 42H47.1446L47.5606 40.016H45.3366L44.9206 42H41.6406L42.0566 40.016H39.8006V36.784H42.7606L43.0806 35.264H40.8886V32.032H43.7686L44.1686 30.16H47.4486L47.0486 32.032H49.2726L49.6726 30.16H52.9686L52.5686 32.032H54.4086V35.264H51.8806ZM48.5846 35.264H46.3606L46.0406 36.784H48.2646L48.5846 35.264ZM54.7225 33.632V30.304H60.1465V42H56.4185V33.632H54.7225Z" fill="white"/>
</svg>
